<?xml version="1.0" standalone="no"?>
<!DOCTYPE svg PUBLIC "-//W3C//DTD SVG 20010904//EN"
 "http://www.w3.org/TR/2001/REC-SVG-20010904/DTD/svg10.dtd">
<svg version="1.0" xmlns="http://www.w3.org/2000/svg"
 width="700.000000pt" height="700.000000pt" viewBox="0 0 700.000000 700.000000"
 preserveAspectRatio="xMidYMid meet">
<metadata>
Created by potrace 1.14, written by Peter Selinger 2001-2017
</metadata>
<g transform="translate(0.000000,700.000000) scale(0.100000,-0.100000)"
fill="#000000" stroke="none">
<path d="M3325 6789 c-166 -21 -178 -23 -322 -55 -469 -104 -907 -318 -1303
-633 -91 -73 -344 -318 -424 -410 -168 -196 -332 -444 -450 -680 -180 -358
-272 -662 -340 -1121 -28 -187 -28 -611 -1 -835 48 -391 163 -772 339 -1125
80 -159 199 -360 219 -368 4 -2 7 -8 7 -13 0 -13 95 -142 184 -249 273 -330
596 -596 967 -798 331 -179 736 -309 1099 -352 156 -18 214 -21 390 -22 172 0
221 3 390 23 683 81 1354 411 1847 908 l43 44 -22 25 c-13 14 -61 64 -108 113
-47 48 -182 188 -300 311 -118 122 -274 284 -347 358 -72 74 -149 155 -171
179 l-40 43 -58 -55 c-167 -158 -366 -285 -589 -377 -80 -33 -282 -88 -390
-105 -89 -15 -409 -14 -500 1 -339 54 -612 173 -864 374 -232 185 -396 393
-527 665 -122 255 -182 510 -188 790 -19 1050 776 1911 1784 1930 80 2 181 -1
225 -6 396 -44 751 -210 1048 -489 l58 -54 87 91 c90 94 442 459 683 708 75
77 155 160 178 184 l42 44 -63 64 c-86 88 -272 244 -393 329 -465 327 -972
516 -1540 573 -149 15 -494 10 -650 -10z"/>
</g>
</svg>
