<?xml version="1.0" encoding="UTF-8"?>
<svg version="1.1" viewBox="0 0 300 300" xml:space="preserve" xmlns="http://www.w3.org/2000/svg" xmlns:cc="http://creativecommons.org/ns#" xmlns:dc="http://purl.org/dc/elements/1.1/" xmlns:rdf="http://www.w3.org/1999/02/22-rdf-syntax-ns#"><metadata><rdf:RDF><cc:Work rdf:about=""><dc:format>image/svg+xml</dc:format><dc:type rdf:resource="http://purl.org/dc/dcmitype/StillImage"/><dc:title/></cc:Work></rdf:RDF></metadata><defs><clipPath id="b"><path d="m38.271 158.78c0-37.4 30.317-67.717 67.717-67.717 18.699 0 35.628 7.58 47.882 19.834l-20.846 20.847c-6.92-6.92-16.478-11.199-27.036-11.199-21.117 0-38.236 17.118-38.236 38.235 0 21.116 17.119 38.234 38.236 38.234 10.558 0 20.116-4.28 27.036-11.198l20.846 20.846c-12.254 12.254-29.183 19.834-47.882 19.834-37.4 0-67.717-30.318-67.717-67.716"/></clipPath><linearGradient id="a" x2="1" gradientTransform="matrix(0 -150.53 -150.53 0 96.07 228.7)" gradientUnits="userSpaceOnUse"><stop stop-color="#f81f01" offset="0"/><stop stop-color="#ef0964" offset="1"/></linearGradient></defs><g transform="matrix(1.3333 0 0 -1.3333 0 446.81)"><g transform="matrix(1.5336 0 0 1.5876 -43.936 -30.483)"><g clip-path="url(#b)"><path d="m38.271 158.78c0-37.4 30.317-67.717 67.717-67.717 18.699 0 35.628 7.58 47.882 19.834l-20.846 20.847c-6.92-6.92-16.478-11.199-27.036-11.199-21.117 0-38.236 17.118-38.236 38.235 0 21.116 17.119 38.234 38.236 38.234 10.558 0 20.116-4.28 27.036-11.198l20.846 20.846c-12.254 12.254-29.183 19.834-47.882 19.834-37.4 0-67.717-30.318-67.717-67.716" fill="url(#a)"/></g></g></g></svg>
