<svg xmlns="http://www.w3.org/2000/svg" xmlns:xlink="http://www.w3.org/1999/xlink" width="1440" height="446.812"><defs><clipPath id="A"><path d="M0 335.109h1080V0H0z"/></clipPath><linearGradient x1="0" y1="0" x2="1" y2="0" gradientTransform="matrix(0,-138.92024,-138.92024,0,633.04608,228.53151)" spreadMethod="pad" id="B" xlink:href="#S"><stop offset="0" stop-color="#f81f01"/><stop offset="1" stop-color="#ef0964"/></linearGradient><linearGradient x1="0" y1="0" x2="1" y2="0" gradientTransform="matrix(0,-138.92024,-138.92024,0,603.03601,228.53151)" spreadMethod="pad" id="C" xlink:href="#S"><stop offset="0" stop-color="#f81f01"/><stop offset="1" stop-color="#ef0964"/></linearGradient><linearGradient x1="0" y1="0" x2="1" y2="0" gradientTransform="matrix(0,-138.92024,-138.92024,0,613.0672,228.53151)" spreadMethod="pad" id="D" xlink:href="#S"><stop offset="0" stop-color="#f81f01"/><stop offset="1" stop-color="#ef0964"/></linearGradient><linearGradient x1="0" y1="0" x2="1" y2="0" gradientTransform="matrix(0,-138.92024,-138.92024,0,187.27844,228.53151)" spreadMethod="pad" id="E" xlink:href="#S"><stop offset="0" stop-color="#f81f01"/><stop offset="1" stop-color="#ef0964"/></linearGradient><linearGradient x1="0" y1="0" x2="1" y2="0" gradientTransform="matrix(0,-138.92024,-138.92024,0,163.18593,228.53151)" spreadMethod="pad" id="F" xlink:href="#S"><stop offset="0" stop-color="#f81f01"/><stop offset="1" stop-color="#ef0964"/></linearGradient><linearGradient x1="0" y1="0" x2="1" y2="0" gradientTransform="matrix(0,-138.92024,-138.92024,0,171.23907,228.53151)" spreadMethod="pad" id="G" xlink:href="#S"><stop offset="0" stop-color="#f81f01"/><stop offset="1" stop-color="#ef0964"/></linearGradient><linearGradient x1="0" y1="0" x2="1" y2="0" gradientTransform="matrix(0,-127.63856,-127.63856,0,227.24493,230.93828)" spreadMethod="pad" id="H" xlink:href="#S"><stop offset="0" stop-color="#f81f01"/><stop offset="1" stop-color="#ef0964"/></linearGradient><linearGradient x1="0" y1="0" x2="1" y2="0" gradientTransform="matrix(0,-127.63856,-127.63856,0,344.06366,230.93828)" spreadMethod="pad" id="I" xlink:href="#S"><stop offset="0" stop-color="#f81f01"/><stop offset="1" stop-color="#ef0964"/></linearGradient><linearGradient x1="0" y1="0" x2="1" y2="0" gradientTransform="matrix(0,-127.63856,-127.63856,0,449.04123,230.93828)" spreadMethod="pad" id="J" xlink:href="#S"><stop offset="0" stop-color="#f81f01"/><stop offset="1" stop-color="#ef0964"/></linearGradient><linearGradient x1="0" y1="0" x2="1" y2="0" gradientTransform="matrix(0,-127.63856,-127.63856,0,561.45972,230.93828)" spreadMethod="pad" id="K" xlink:href="#S"><stop offset="0" stop-color="#f81f01"/><stop offset="1" stop-color="#ef0964"/></linearGradient><linearGradient x1="0" y1="0" x2="1" y2="0" gradientTransform="matrix(0,-127.63856,-127.63856,0,673.04175,230.93828)" spreadMethod="pad" id="L" xlink:href="#S"><stop offset="0" stop-color="#f81f01"/><stop offset="1" stop-color="#ef0964"/></linearGradient><linearGradient x1="0" y1="0" x2="1" y2="0" gradientTransform="matrix(0,-127.63856,-127.63856,0,777.11084,230.93828)" spreadMethod="pad" id="M" xlink:href="#S"><stop offset="0" stop-color="#f81f01"/><stop offset="1" stop-color="#ef0964"/></linearGradient><linearGradient x1="0" y1="0" x2="1" y2="0" gradientTransform="matrix(0,-127.63856,-127.63856,0,890.36682,230.93828)" spreadMethod="pad" id="N" xlink:href="#S"><stop offset="0" stop-color="#f81f01"/><stop offset="1" stop-color="#ef0964"/></linearGradient><linearGradient x1="0" y1="0" x2="1" y2="0" gradientTransform="matrix(0,-127.63856,-127.63856,0,996.33154,230.93828)" spreadMethod="pad" id="O" xlink:href="#S"><stop offset="0" stop-color="#f81f01"/><stop offset="1" stop-color="#ef0964"/></linearGradient><linearGradient x1="0" y1="0" x2="1" y2="0" gradientTransform="matrix(0,-150.5273,-150.5273,0,96.070305,228.70129)" spreadMethod="pad" id="P" xlink:href="#S"><stop offset="0" stop-color="#f81f01"/><stop offset="1" stop-color="#ef0964"/></linearGradient><path id="Q" d="M615.447 278.107c-9.718-9.719-9.718-25.477 0-35.197h0c9.72-9.719 25.478-9.719 35.197 0h0c9.72 9.72 9.72 25.478 0 35.197h0c-4.859 4.86-11.229 7.29-17.598 7.29h0a24.81 24.81 0 0 1-17.599-7.29"/><path id="R" d="M173.15 122.82c-7.803-7.803-7.803-20.454 0-28.256h0c7.803-7.803 20.454-7.803 28.256 0h0c7.804 7.802 7.804 20.453 0 28.256h0c-3.901 3.902-9.014 5.853-14.127 5.853h0c-5.114 0-10.227-1.951-14.129-5.853"/><linearGradient id="S" gradientUnits="userSpaceOnUse"/></defs><g transform="matrix(1.333333 0 0 -1.333333 0 446.812)"><g clip-path="url(#A)" fill="#929497"><path d="M255.088 44.886l3.975.348c.188-1.594.626-2.901 1.314-3.921s1.755-1.846 3.204-2.476 3.077-.944 4.887-.944c1.607 0 3.025.239 4.255.716s2.147 1.133 2.749 1.966a4.56 4.56 0 0 1 .901 2.726c0 .998-.289 1.871-.869 2.617s-1.535 1.372-2.867 1.878c-.855.334-2.744.851-5.668 1.553s-4.974 1.365-6.146 1.988c-1.521.797-2.654 1.783-3.4 2.964s-1.119 2.501-1.119 3.963c0 1.607.456 3.11 1.368 4.508s2.246 2.457 3.998 3.182 3.699 1.086 5.841 1.086c2.361 0 4.442-.382 6.245-1.14s3.188-1.88 4.159-3.356 1.491-3.149 1.564-5.018l-4.04-.305c-.217 2.014-.953 3.535-2.204 4.562s-3.103 1.542-5.55 1.542c-2.548 0-4.406-.467-5.571-1.4s-1.749-2.06-1.749-3.378c0-1.143.413-2.084 1.239-2.823.811-.739 2.928-1.496 6.352-2.27s5.774-1.451 7.049-2.031c1.853-.854 3.221-1.937 4.104-3.246s1.325-2.821 1.325-4.528c0-1.695-.486-3.291-1.454-4.79s-2.365-2.665-4.183-3.496-3.861-1.25-6.135-1.25c-2.88 0-5.295.421-7.243 1.261s-3.474 2.102-4.582 3.79-1.69 3.594-1.749 5.722m80.423 5.212c0-3.837 1.031-6.859 3.095-9.067s4.651-3.312 7.764-3.312c3.171 0 5.781 1.115 7.83 3.345s3.074 5.393 3.074 9.49c0 2.593-.44 4.855-1.315 6.787s-2.158 3.433-3.844 4.496-3.581 1.596-5.68 1.596c-2.983 0-5.548-1.023-7.699-3.072s-3.225-5.47-3.225-10.263m-4.343.065c0 5.286 1.418 9.424 4.257 12.413s6.501 4.484 10.988 4.484c2.94 0 5.589-.702 7.95-2.106s4.159-3.363 5.397-5.875 1.857-5.361 1.857-8.546c0-3.229-.652-6.117-1.955-8.665s-3.149-4.478-5.539-5.789-4.966-1.966-7.731-1.966c-2.997 0-5.676.724-8.035 2.173a13.97 13.97 0 0 0-5.366 5.929c-1.216 2.504-1.823 5.154-1.823 7.948m82.355-15.506v31.839h21.479V62.74h-17.267v-9.861h14.943v-3.758h-14.943V34.657zm81.313 0V62.74h-10.489v3.756h25.237V62.74H499.05V34.657zm70.89 0l-8.449 31.839h4.321l4.844-20.871 1.347-6.515 1.433 5.885 6.059 21.501h5.083l4.561-16.115c1.143-3.996 1.969-7.754 2.476-11.271.404 2.012.932 4.321 1.585 6.927l4.995 20.459h4.234l-8.73-31.839h-4.061l-6.711 24.26-1 3.736c-.333-1.463-.643-2.709-.933-3.736l-6.754-24.26zm86.72 13.075h10.795l-3.324 8.817-2.258 6.602a40.65 40.65 0 0 0-1.715-6.081zm-9.187-13.075l12.227 31.839h4.539l13.032-31.839h-4.799l-3.714 9.642h-13.315l-3.496-9.642zm83.703 17.788h9.057c1.924 0 3.432.199 4.517.597s1.912 1.035 2.477 1.911.846 1.828.846 2.856c0 1.506-.546 2.744-1.64 3.715s-2.819 1.454-5.179 1.454h-10.078zm-4.214-17.788v31.839h14.118c2.838 0 4.995-.286 6.472-.857s2.656-1.583 3.539-3.03 1.325-3.049 1.325-4.8c0-2.258-.731-4.163-2.192-5.711s-3.722-2.535-6.777-2.955c1.115-.535 1.962-1.063 2.541-1.585 1.23-1.13 2.397-2.541 3.497-4.236l5.538-8.665h-5.299l-4.213 6.624-3.042 4.387c-.795 1.013-1.508 1.724-2.138 2.128s-1.27.689-1.923.848c-.478.1-1.259.152-2.345.152h-4.887V34.657zm78.403 0v31.839h23.021V62.74h-18.807v-9.752h17.613v-3.736h-17.613V38.415h19.547v-3.758z"/></g><use xlink:href="#Q" fill="url(#B)"/><use xlink:href="#Q" fill="url(#B)"/><path d="M595.628 237.908a10.48 10.48 0 0 1 0-14.818h0a10.48 10.48 0 0 1 14.816 0h0a10.48 10.48 0 0 1 0 14.818h0c-2.046 2.045-4.727 3.068-7.408 3.068h0c-2.682 0-5.363-1.023-7.408-3.068" fill="url(#C)"/><path d="M603.036 230.499l10.475.058s-1.286 3.922 1.644 6.852h0c2.93 2.93 6.284 1.077 6.284 1.077h0l1.66 12.075z" fill="url(#D)"/><path d="M611.023 248.902s1.853-3.354-1.077-6.285h0c-2.929-2.929-6.852-1.643-6.852-1.643h0l-.058-10.475 20.063 20.062z" fill="url(#D)"/><use xlink:href="#Q" fill="url(#B)"/><use xlink:href="#Q" fill="url(#B)"/><path d="M595.628 297.928a10.48 10.48 0 0 1 0-14.818h0a10.48 10.48 0 0 1 14.816 0h0a10.48 10.48 0 0 1 0 14.818h0c-2.046 2.046-4.727 3.068-7.408 3.068h0a10.44 10.44 0 0 1-7.408-3.068" fill="url(#C)"/><path d="M603.094 280.044s3.923 1.286 6.852-1.644h0c2.93-2.93 1.077-6.285 1.077-6.285h0l12.076-1.659-20.063 20.063z" fill="url(#D)"/><path d="M623.099 270.456l-1.66 12.076s-3.354-1.854-6.284 1.077h0c-2.93 2.929-1.644 6.852-1.644 6.852h0l-10.475.058z" fill="url(#D)"/><use xlink:href="#R" fill="url(#E)"/><use xlink:href="#R" fill="url(#E)"/><path d="M157.238 90.547c-3.284-3.285-3.284-8.61 0-11.895h0c3.285-3.285 8.61-3.285 11.895 0h0c3.285 3.285 3.285 8.61 0 11.895h0a8.38 8.38 0 0 1-5.947 2.464h0c-2.153 0-4.305-.821-5.948-2.464" fill="url(#F)"/><path d="M163.186 84.599l8.41.047s-1.033 3.149 1.319 5.502h0c2.352 2.351 5.046.864 5.046.864h0l1.331 9.694z" fill="url(#G)"/><path d="M169.598 99.374s1.487-2.693-.864-5.045h0c-2.353-2.353-5.502-1.32-5.502-1.32h0l-.046-8.41 16.106 16.107z" fill="url(#G)"/><path d="M257.231 216.044l-30.215-44.789-29.759 44.789h-30.364l47.217-68.779v-42.057h25.962v42.057l47.525 68.779z" fill="url(#H)"/><path d="M297.148 216.197V105.208h51.775c21.712 0 42.056 5.314 42.056 32.19h0c0 15.03-9.412 22.471-20.041 25.811h0c8.806 3.34 15.184 9.412 15.184 22.166h0c0 23.989-15.792 30.822-39.173 30.822h0zm26.117-20.802h24.445c6.831 0 12.295-3.492 12.295-10.93h0c0-7.441-3.34-12.299-12.449-12.299h0-24.291zm0-44.182h25.203c11.235 0 16.549-3.189 16.549-12.601h0c0-8.807-5.314-12.603-16.094-12.603h0-25.658z" fill="url(#I)"/><path d="M403.643 216.197V105.208h90.796v20.801h-64.83v23.686h57.389v20.952h-57.389v24.748h64.83v20.802z" fill="url(#J)"/><path d="M509.838 216.197V105.208h25.811v34.619h17.612l28.695-34.619h0 31.125l-31.125 37.2h0c14.578 4.706 24.445 15.638 24.445 35.223h0c0 25.963-17.46 38.566-43.271 38.566h0zm25.811-20.802h27.481c15.335 0 17.611-10.171 17.611-17.764h0c0-13.361-9.565-17.003-17.611-17.003h0-27.481z" fill="url(#K)"/><path d="M626.126 216.197V105.208h51.775c21.712 0 42.056 5.314 42.056 32.19h0c0 15.03-9.412 22.471-20.041 25.811h0c8.807 3.34 15.183 9.412 15.183 22.166h0c0 23.989-15.79 30.822-39.172 30.822h0zm26.117-20.802h24.443c6.832 0 12.297-3.492 12.297-10.93h0c0-7.441-3.34-12.299-12.449-12.299h0-24.291zm0-44.182h25.203c11.235 0 16.549-3.189 16.549-12.601h0c0-8.807-5.314-12.603-16.094-12.603h0-25.658z" fill="url(#L)"/><path d="M807.097 216.044l-30.215-44.789-29.759 44.789h-30.364l47.217-68.779v-42.057h25.962v42.057l47.525 68.779z" fill="url(#M)"/><path d="M842.54 216.197v-20.802h34.921v-90.187h25.963v90.187h34.769v20.802z" fill="url(#N)"/><path d="M950.934 216.197V105.208h90.795v20.801h-64.83v23.686h57.39v20.952h-57.39v24.748h64.83v20.802z" fill="url(#O)"/><path d="M38.271 158.781c0-37.4 30.317-67.717 67.717-67.717h0c18.699 0 35.628 7.58 47.882 19.834h0l-20.846 20.847c-6.92-6.92-16.478-11.199-27.036-11.199h0c-21.117 0-38.236 17.118-38.236 38.235h0c0 21.116 17.119 38.234 38.236 38.234h0c10.558 0 20.116-4.28 27.036-11.198h0l20.846 20.846c-12.254 12.254-29.183 19.834-47.882 19.834h0c-37.4 0-67.717-30.318-67.717-67.716" fill="url(#P)"/></g></svg>